<?xml version="1.0" encoding="utf-8"?>
<!-- Create with Visual Graph (http://www.visual-graph.com/) -->
<svg xmlns="http://www.w3.org/2000/svg" version="1.1" xmlns:xlink="http://www.w3.org/1999/xlink" style="background-color:#FFFFFF" id="main" viewBox="0.000000 0.000000 1000.000000 900.000000" width="600.000000" height="600.000000">
<script type="text/javascript" xlink:href="vg.js"/>
<defs/>
<defs/>
<line id="line3" x1="-97.2179" y1="13.8019" x2="-32.9179" y2="-13.8981" fill="#9900CC" stroke="#000000" transform="translate(31.917897,-94.701870) "/>
<g id="element1" transform="translate(195.750000,87.250000) ">
<ellipse id="circle3" cx="26" cy="-32.5" rx="92" ry="92" fill="#FFFF00" fill-opacity="0.8" stroke="#ffff00" stroke-opacity="1" transform="translate(-29.250000,14.750000) "/>
<ellipse id="circle5" cx="-17" cy="-77.5" rx="50" ry="50" fill="#FF00FF" fill-opacity="0.7" fill-rule="evenodd" stroke="#FF00FF" stroke-opacity="0.7" transform="translate(-57.250000,131.750000) "/>
<text id="text3" x="-0.088867" y="19" font-family="Arial" font-size="28" text-anchor="start" transform="translate(-107.661133,60.750000) ">
T2(S)</text>
<text id="text4" x="-0.088867" y="19" font-family="Arial" font-size="28" text-anchor="start" transform="translate(-28.661133,-34.250000) ">
T1(S)</text>
<ellipse id="circle6" cx="-17" cy="-77.5" rx="50" ry="50" fill="#9900FF" fill-opacity="0.7" fill-rule="evenodd" stroke="#9900FF" stroke-opacity="0.7" transform="translate(91.250000,137.250000) "/>
<text id="text5" x="-0.088867" y="19" font-family="Arial" font-size="28" text-anchor="start" transform="translate(45.338867,66.750000) ">
T2(E)</text>
</g>
<g id="element2" transform="translate(590.500000,106.000000) ">
<ellipse id="circle7" cx="-6" cy="2.5" rx="92" ry="92" fill="#00FF00" fill-opacity="0.8" stroke="#00ff00" transform="translate(-94.000000,46.000000) "/>
<ellipse id="circle8" cx="-6" cy="2.5" rx="92" ry="92" fill="#33FF66" fill-opacity="0.8" stroke="#00ff00" transform="translate(106.000000,53.000000) "/>
<text id="text7" x="-0.088867" y="19" font-family="Arial" font-size="28" text-anchor="start" transform="translate(70.088867,90.500000) ">
T3(E)</text>
<text id="text10" x="-0.088867" y="19" font-family="Arial" font-size="28" text-anchor="start" transform="translate(-126.911133,87.500000) ">
T3(S)</text>
<g id="element2" transform="translate(2.250000,-37.750000) ">
<ellipse id="circle3" cx="26" cy="-32.5" rx="92" ry="92" fill="#FFFF00" fill-opacity="0.8" stroke="#ffff00" stroke-opacity="1" transform="translate(-29.250000,14.750000) "/>
<ellipse id="circle5" cx="-17" cy="-77.5" rx="50" ry="50" fill="#FF00FF" fill-opacity="0.7" fill-rule="evenodd" stroke="#FF00FF" stroke-opacity="0.7" transform="translate(-57.250000,131.750000) "/>
<text id="text3" x="-0.088867" y="19" font-family="Arial" font-size="28" text-anchor="start" transform="translate(-107.661133,60.750000) ">
T2(S)</text>
<text id="text4" x="-0.088867" y="19" font-family="Arial" font-size="28" text-anchor="start" transform="translate(-28.661133,-34.250000) ">
T1(S)</text>
<ellipse id="circle6" cx="-17" cy="-77.5" rx="50" ry="50" fill="#9900FF" fill-opacity="0.7" fill-rule="evenodd" stroke="#9900FF" stroke-opacity="0.7" transform="translate(91.250000,137.250000) "/>
<text id="text5" x="-0.088867" y="19" font-family="Arial" font-size="28" text-anchor="start" transform="translate(45.338867,66.750000) ">
T2(E)</text>
</g>
</g>

<path id="line4-1" d="M8.465148,-12.803995 A92.199892,92.199892,0,0,0,91.465148,-86.803995 M11.465148,-11.803995 A91.281973,91.281973,0,1,0,89.465148,-86.803995 M-167.534852,-65.803995 A92.657974,92.657975,0,1,0,-163.534852,-69.803995 " fill="none" stroke="#FF0000" stroke-width="6" stroke-dasharray="18,6" transform="translate(590.034852,156.303995) ">
<animate xlink:href="#line4-1" attributeName="stroke" attributeType="XML" from="#FFFFFF" to="#FF0000" begin="0"
								 dur="2s" fill="freeze" repeatCount="indefinite"></animate>
								<animate xlink:href="#line4-1" attributeName="stroke-opacity" attributeType="XML" from="0" to="1" begin="0"
								 dur="2s" fill="freeze" repeatCount="indefinite"></animate>
							</path>
</svg>
