<?xml version="1.0" encoding="utf-8"?>
<!-- Create with Visual Graph (http://www.visual-graph.com/) -->
<svg xmlns="http://www.w3.org/2000/svg" version="1.1" xmlns:xlink="http://www.w3.org/1999/xlink" style="background-color:##2c2c2f" id="main" viewBox="-100.000000 0.000000 950.000000 1000.000000" width="280.000000" height="380.000000">
<script type="text/javascript" xlink:href="vg.js"/>
<defs/>
<line id="line3" x1="-97.2179" y1="13.8019" x2="-32.9179" y2="-13.8981" fill="#9900CC" stroke="#000000" transform="translate(31.917897,-94.701870) "/>
<text id="text6" x="-2.08887" y="10" font-family="Arial" font-size="18" text-anchor="start" transform="translate(-164.911133,153.000000) ">
</text>
<text id="text9" x="-2.08887" y="5" font-family="Arial" font-size="16" text-anchor="start" font-weight="bold" transform="translate(-164.911133,155.000000) ">
</text>
<g id="element3" transform="translate(163.750000,40.750000) ">
<ellipse id="circle3" cx="26" cy="-32.5" rx="92" ry="92" fill="#00FF00" fill-opacity="0.8" stroke="#33FF33" stroke-opacity="1" transform="translate(-54.750000,23.750000) "/>
<ellipse id="circle4" cx="-7" cy="-67.5" rx="60" ry="60" fill="#FFFF00" fill-opacity="0.8" fill-rule="evenodd" stroke="#FFFF33" stroke-opacity="1" transform="translate(52.250000,150.750000) "/>
<text id="text3" x="-0.088867" y="19" font-family="Arial" font-size="28" text-anchor="start" transform="translate(18.838867,73.750000) ">
T2(E)</text>
<text id="text8" x="-0.088867" y="19" font-family="Arial" font-size="28" text-anchor="start" transform="translate(-92.161133,-16.250000) ">
T1(E)</text>
<ellipse id="circle5" cx="-7" cy="-67.5" rx="60" ry="60" fill="#FF0000" fill-opacity="0.8" fill-rule="evenodd" stroke="#FF3333" stroke-opacity="1" transform="translate(67.750000,-15.750000) "/>
<text id="text4" x="-0.088867" y="19" font-family="Arial" font-size="28" text-anchor="start" transform="translate(34.838867,-100.250000) ">
T2(S)</text>
</g>
<g id="element1" transform="translate(454.000000,51.500000) ">
<g id="element1" transform="translate(60.500000,-102.000000) ">
<ellipse id="circle1" cx="11.25" cy="10.6875" rx="90" ry="90" fill="#3333FF" fill-opacity="0.8" stroke="#7171FF" transform="translate(-11.250000,-10.687500) "/>
<text id="text2" x="-0.724975" y="18.125" font-family="Arial" font-size="28" text-anchor="start" fill="#000000" transform="translate(-11.025025,-63.000000) ">
T3(S)</text>
</g>
<g id="element2" transform="translate(35.500000,102.000000) ">
<ellipse id="circle2" cx="20" cy="19.5" rx="90" ry="90" fill="#FF00FF" fill-opacity="0.8" stroke="#FF33FF" transform="translate(-20.000000,-19.500000) "/>
<text id="text2" x="-0.088867" y="19" font-family="Arial" font-size="28" text-anchor="start" transform="translate(-26.911133,49.000000) ">
T3(E)</text>
</g>
<g id="element4" transform="translate(-29.750000,-0.750000) ">
<ellipse id="circle3" cx="26" cy="-32.5" rx="92" ry="92" fill="#00FF00" fill-opacity="0.8" stroke="#33FF33" stroke-opacity="1" transform="translate(-54.750000,23.750000) "/>
<ellipse id="circle4" cx="-7" cy="-67.5" rx="60" ry="60" fill="#FFFF00" fill-opacity="0.8" fill-rule="evenodd" stroke="#FFFF33" stroke-opacity="1" transform="translate(52.250000,150.750000) "/>
<text id="text3" x="-0.088867" y="19" font-family="Arial" font-size="28" text-anchor="start" transform="translate(18.838867,73.750000) ">
T2(E)</text>
<text id="text8" x="-0.088867" y="19" font-family="Arial" font-size="28" text-anchor="start" transform="translate(-92.161133,-16.250000) ">
T1(E)</text>
<ellipse id="circle5" cx="-7" cy="-67.5" rx="60" ry="60" fill="#FF0000" fill-opacity="0.8" fill-rule="evenodd" stroke="#FF3333" stroke-opacity="1" transform="translate(67.750000,-15.750000) "/>
<text id="text4" x="-0.088867" y="19" font-family="Arial" font-size="28" text-anchor="start" transform="translate(34.838867,-100.250000) ">
T2(S)</text>
</g>
</g>
<path id="line4-1" d="M-68.422398,80.593292 A60.553699,60.553699,0,1,1,-68.422398,84.593292 L-68.422398,80.593292 M-49.422398,-94.406708 A94.337604,94.337604,0,0,1,9.577602,-24.406708 M-50.422398,-95.906708 A60.120351,60.120351,0,1,1,8.077602,-22.906708 " fill="none" stroke="#FF0000" stroke-width="6" stroke-dasharray="18,6" transform="translate(478.922398,49.906708) ">
<animate xlink:href="#line4-1" attributeName="stroke" attributeType="XML" from="#FFFFFF" to="#FF0000" begin="0"
								 dur="2s" fill="freeze" repeatCount="indefinite"></animate>
								<animate xlink:href="#line4-1" attributeName="stroke-opacity" attributeType="XML" from="0" to="1" begin="0"
								 dur="2s" fill="freeze" repeatCount="indefinite"></animate>
							</path>
</svg>