<?xml version="1.0" encoding="utf-8"?>
<!-- Create with Visual Graph (http://www.visual-graph.com/) -->
<svg xmlns="http://www.w3.org/2000/svg" version="1.1" xmlns:xlink="http://www.w3.org/1999/xlink" style="background-color:#FFFFFF" id="main" viewBox="0.000000 0.000000 1000.000000 800.000000" width="600.000000" height="600.000000">
<script type="text/javascript" xlink:href="vg.js"/>
<defs/>
<ellipse id="circle3" cx="26" cy="-32.5" rx="92" ry="92" fill="#CC8888" fill-opacity="1" stroke="#CC8888" stroke-opacity="1" transform="translate(564.000000,81.000000) "/>
<line id="line3" x1="-97.2179" y1="13.8019" x2="-32.9179" y2="-13.8981" fill="#9900CC" stroke="#000000" transform="translate(31.917897,-94.701870) "/>
<text id="text6" x="-2.08887" y="10" font-family="Arial" font-size="18" text-anchor="start" transform="translate(-164.911133,153.000000) ">
</text>
<text id="text9" x="-2.08887" y="5" font-family="Arial" font-size="16" text-anchor="start" font-weight="bold" transform="translate(-164.911133,155.000000) ">
</text>
<g id="element4" transform="translate(529.750000,44.000000) ">
<ellipse id="circle7" cx="-6" cy="-64.5" rx="60" ry="60" fill="#FF0033" fill-opacity="0.6" stroke="#FF85FF" stroke-opacity="1" transform="translate(40.250000,72.500000) "/>
<ellipse id="circle8" cx="-7" cy="-68.75" rx="60" ry="58.75" fill="#33CC66" fill-opacity="0.8" fill-rule="evenodd" stroke="#85E0A3" stroke-opacity="1" transform="translate(-22.750000,143.500000) "/>
<text id="text7" x="-1.08887" y="13" font-family="Arial" font-size="22" text-anchor="start" transform="translate(-54.161133,71.500000) ">
T1(E)</text>
<ellipse id="circle9" cx="-2" cy="-62.5" rx="65" ry="65" fill="#00FF00" fill-opacity="0.8" fill-rule="evenodd" stroke="#66FF66" stroke-opacity="1" transform="translate(-27.250000,-6.000000) "/>
<text id="text10" x="-1.08887" y="13" font-family="Arial" font-size="22" text-anchor="start" transform="translate(23.838867,9.500000) ">
T2(E)</text>
<text id="text11" x="-1.08887" y="13" font-family="Arial" font-size="22" text-anchor="start" transform="translate(-48.161133,-74.500000) ">
T1(S)</text>
</g>
<path id="line4-1" d="M-58.421522,-12.053817 A59.807367,59.807367,0,1,0,-0.921522,-59.053817 M-0.921522,-60.553817 A62.732360,62.732360,0,0,1,-57.921522,-12.053817 " fill="none" stroke="#ff0000" stroke-width="6" stroke-dasharray="18,6" transform="translate(564.421522,51.053817) ">
<animate xlink:href="#line4-1" attributeName="stroke" attributeType="XML" from="#FFFFFF" to="#FF0000" begin="0"
								 dur="2s" fill="freeze" repeatCount="indefinite"></animate>
								<animate xlink:href="#line2-1" attributeName="stroke-opacity" attributeType="XML" from="0" to="1" begin="0"
								 dur="2s" fill="freeze" repeatCount="indefinite"></animate>
							</path>
<ellipse id="circle7" cx="-6" cy="-64.5" rx="60" ry="60" fill="#FF0099" fill-opacity="1" stroke="#FF0099" stroke-opacity="1" transform="translate(176.000000,124.500000) "/>
<ellipse id="circle8" cx="-7" cy="-68.75" rx="60" ry="58.75" fill="#33CC66" fill-opacity="1" fill-rule="evenodd" stroke="#33CC66" stroke-opacity="1" transform="translate(111.000000,197.500000) "/>
<text id="text7" x="-1.08887" y="13" font-family="Arial" font-size="22" text-anchor="start" transform="translate(81.588867,123.500000) ">
T1(E)</text>
<ellipse id="circle9" cx="-2" cy="-62.5" rx="65" ry="65" fill="#00FF00" fill-opacity="1" fill-rule="evenodd" stroke="#00FF00" stroke-opacity="1" transform="translate(108.500000,46.000000) "/>
<text id="text10" x="-1.08887" y="13" font-family="Arial" font-size="22" text-anchor="start" transform="translate(159.588867,61.500000) ">
T2(E)</text>
<text id="text11" x="-1.08887" y="13" font-family="Arial" font-size="22" text-anchor="start" transform="translate(87.588867,-22.500000) ">
T1(S)</text>
<ellipse id="circle1" cx="26" cy="-32.5" rx="92" ry="92" fill="#FFFF00" fill-opacity="1" stroke="#FFFF00" stroke-opacity="1" transform="translate(372.000000,88.500000) "/>
<text id="text2" x="-1.08887" y="13" font-family="Arial" font-size="22" text-anchor="start" transform="translate(356.588867,49.500000) ">
T3(S)</text>
<text id="text5" x="-1.08887" y="13" font-family="Arial" font-size="22" text-anchor="start" transform="translate(623.588867,42.500000) ">
T3(E)</text>
</svg>
