<?xml version="1.0" encoding="utf-8"?>
<!-- Create with Visual Graph (http://www.visual-graph.com/) -->
<svg xmlns="http://www.w3.org/2000/svg" version="1.1" xmlns:xlink="http://www.w3.org/1999/xlink" style="background-color:##2c2c2f" id="main" viewBox="-80.000000 0.000000 1000.000000 950.000000" width="300.000000" height="380.000000">
<script type="text/javascript" xlink:href="vg.js"/>
<defs/>
<line id="line3" x1="-97.2179" y1="13.8019" x2="-32.9179" y2="-13.8981" fill="#9900CC" stroke="#000000" transform="translate(31.917897,-94.701870) "/>
<text id="text6" x="-2.08887" y="10" font-family="Arial" font-size="18" text-anchor="start" transform="translate(-164.911133,153.000000) ">
</text>
<text id="text9" x="-2.08887" y="5" font-family="Arial" font-size="16" text-anchor="start" font-weight="bold" transform="translate(-164.911133,155.000000) ">
</text>
<g id="element1" transform="translate(172.000000,35.500000) ">
<ellipse id="circle5" cx="25" cy="-35.5" rx="92" ry="92" fill="#FFFF00" fill-opacity="0.8" fill-rule="evenodd" stroke="#FFFF33" stroke-opacity="1" transform="translate(-31.500000,63.500000) "/>
<text id="text3" x="-0.088867" y="19" font-family="Arial" font-size="28" text-anchor="start" transform="translate(-37.411133,30.000000) ">
T1(E)</text>
<ellipse id="circle4" cx="-6" cy="-64.5" rx="60" ry="60" fill="#00FF00" fill-opacity="0.8" stroke="#33FF33" stroke-opacity="1" transform="translate(44.500000,4.500000) "/>
<text id="text5" x="-1.08887" y="18" font-family="Arial" font-size="26" text-anchor="start" transform="translate(20.588867,-72.000000) ">
T2(S)</text>
</g>
<g id="element2" transform="translate(491.500000,36.750000) ">
<ellipse id="circle5" cx="27.1739" cy="-38.587" rx="100" ry="100" fill="#FF00FF" fill-opacity="0.7" fill-rule="evenodd" stroke="#FF66FF" stroke-opacity="1" transform="translate(0.826087,-56.163043) "/>
<g id="element6" transform="translate(-35.500000,1.750000) ">
<ellipse id="circle5" cx="25" cy="-35.5" rx="92" ry="92" fill="#FFFF00" fill-opacity="0.8" fill-rule="evenodd" stroke="#FFFF33" stroke-opacity="1" transform="translate(-31.500000,63.500000) "/>
<text id="text3" x="-0.088867" y="19" font-family="Arial" font-size="28" text-anchor="start" transform="translate(-37.411133,30.000000) ">
T1(E)</text>
<ellipse id="circle4" cx="-6" cy="-64.5" rx="60" ry="60" fill="#00FF00" fill-opacity="0.8" stroke="#33FF33" stroke-opacity="1" transform="translate(44.500000,4.500000) "/>
<text id="text5" x="-1.08887" y="18" font-family="Arial" font-size="26" text-anchor="start" transform="translate(20.588867,-72.000000) ">
T2(S)</text>
</g>
<ellipse id="circle3" cx="-7.5" cy="-80.625" rx="75" ry="75" fill="#0000CC" fill-opacity="0.7" stroke="#6666E0" stroke-opacity="1" transform="translate(66.500000,200.375000) "/>
<text id="text5" x="-1.36108" y="17.25" font-family="Arial" font-size="28" text-anchor="start" transform="translate(36.611084,117.625000) ">
T3(E)</text>
<text id="text1" x="-0.531377" y="18.3913" font-family="Arial" font-size="28" text-anchor="start" transform="translate(4.748768,-156.032609) ">
T3(S)</text>
</g>
<path id="line4-1" d="M37.789198,53.572769 A60.250840,60.250840,0,1,0,-60.210802,3.572769 88.388666,88.388666,0,0,1,38.289198,53.072769 " fill="none" stroke="#FF0000" stroke-width="6" stroke-dasharray="18,6" transform="translate(492.710802,-26.072769) ">
<animate xlink:href="#line4-1" attributeName="stroke" attributeType="XML" from="#FFFFFF" to="#FF0000" begin="0"
								 dur="2s" fill="freeze" repeatCount="indefinite"></animate>
								<animate xlink:href="#line4-1" attributeName="stroke-opacity" attributeType="XML" from="0" to="1" begin="0"
								 dur="2s" fill="freeze" repeatCount="indefinite"></animate>
							</path>
</svg>