<?xml version="1.0" encoding="utf-8"?>
<!-- Create with Visual Graph (http://www.visual-graph.com/) -->
<svg xmlns="http://www.w3.org/2000/svg" version="1.1" xmlns:xlink="http://www.w3.org/1999/xlink" style="background-color:#FFFFFF" id="main" viewBox="0.000000 0.000000 1000.000000 800.000000" width="600.000000" height="600.000000">
<script type="text/javascript" xlink:href="vg.js"/>
<defs/>
<line id="line3" x1="-97.2179" y1="13.8019" x2="-32.9179" y2="-13.8981" fill="#9900CC" stroke="#000000" transform="translate(31.917897,-94.701870) "/>
<g id="element2" transform="translate(163.500000,69.000000) ">
<ellipse id="circle4" cx="6.5" cy="-54" rx="73.5" ry="73.5" fill="#0000FF" fill-opacity="0.7" fill-rule="nonzero" stroke="#0000FF" stroke-opacity="1" transform="translate(59.500000,50.500000) "/>
<text id="text6" x="-0.088867" y="19" font-family="Arial" font-size="28" text-anchor="start" transform="translate(56.588867,-36.000000) ">
T2(E)</text>
<text id="text9" x="-2.08887" y="5" font-family="Arial" font-size="16" text-anchor="start" font-weight="bold" transform="translate(47.588867,-34.000000) ">
</text>
<path id="line7" d="M-88.900000,-38.592919 A73.403843,73.403843,0,1,0,57.900000,-37.192919 " fill="#FFFF00" fill-opacity="0.9" stroke="#FFFF00" transform="translate(81.500000,35.692919) "/>
<text id="text7" x="-0.088867" y="19" font-family="Arial" font-size="28" text-anchor="start" transform="translate(50.588867,21.000000) ">
T2(S)</text>
<text id="text4" x="0.911133" y="5" font-family="Arial" font-size="16" text-anchor="start" font-weight="bold" fill-opacity="1" transform="translate(43.588867,30.000000) ">
</text>
<ellipse id="circle2" cx="26" cy="-32.5" rx="92" ry="92" fill="#00FF00" fill-opacity="0.7" stroke="#00FF00" stroke-opacity="0.7" transform="translate(-73.500000,32.500000) "/>
<text id="text8" x="-0.088867" y="19" font-family="Arial" font-size="28" text-anchor="start" transform="translate(-89.411133,-10.000000) ">
T1(S)</text>
</g>
<g id="element1" transform="translate(616.000000,46.499999) ">
<path id="line12" d="M-150.000000,47.018033 A150.198248,150.198247,0,0,1,150.000000,46.018033 " fill="#339980" fill-opacity="0.7" stroke="#339980" stroke-opacity="0.7" transform="translate(68.500000,-20.018032) "/>
<text id="text2" x="-0.088867" y="19" font-family="Arial" font-size="28" text-anchor="start" transform="translate(89.588867,-29.999999) ">
T3(E)</text>
<path id="line1" d="M-72.565637,34.449959 A73.010774,73.010774,0,0,1,73.434363,33.949959 " fill="#0000FF" fill-opacity="0.7" stroke="#0000FF" stroke-opacity="0.7" transform="translate(-8.934363,-6.949958) "/>
<text id="text1" x="-0.088867" y="19" font-family="Arial" font-size="28" text-anchor="start" transform="translate(-27.411133,-4.999999) ">
T2(E)</text>
<ellipse id="circle2" cx="26" cy="-32.5" rx="92" ry="92" fill="#00FF00" fill-opacity="0.7" stroke="#00FF00" stroke-opacity="0.7" transform="translate(-152.500000,56.500001) "/>
<text id="text8" x="-0.088867" y="19" font-family="Arial" font-size="28" text-anchor="start" transform="translate(-162.411133,12.000001) ">
T1(S)</text>
</g>
<path id="line6-1" d="M-59.750000,-20.490221 A75.273004,75.273004,0,0,1,-35.750000,33.509779 4874.652413,4874.652412,0,0,0,59.250000,33.509779 M-59.250000,-20.990221 A74.256373,74.256373,0,0,1,59.750000,36.009779 " fill="none" stroke="#FF0000" stroke-width="5" stroke-dasharray="18,6" transform="translate(622.250000,39.990221) ">
	<animate xlink:href="#line6-1" attributeName="stroke" attributeType="XML" from="#FFFFFF" to="#FF0000" begin="0"
								 dur="2s" fill="freeze" repeatCount="indefinite"></animate>
								<animate xlink:href="#line6-1" attributeName="stroke-opacity" attributeType="XML" from="0" to="1" begin="0"
								 dur="2s" fill="freeze" repeatCount="indefinite"></animate>
							</path>
</svg>
