<?xml version="1.0" encoding="utf-8"?>
<!-- Create with Visual Graph (http://www.visual-graph.com/) -->
<svg xmlns="http://www.w3.org/2000/svg" version="1.1" xmlns:xlink="http://www.w3.org/1999/xlink" style="background-color:##2c2c2f" id="main" viewBox="-100.000000 0.000000 950.000000 1100.000000" width="280.000000" height="390.000000">
<script type="text/javascript" xlink:href="vg.js"/>
<defs/>
<line id="line3" x1="-97.2179" y1="13.8019" x2="-32.9179" y2="-13.8981" fill="#9900CC" stroke="#000000" transform="translate(31.917897,-94.701870) "/>
<g id="element2" transform="translate(123.000000,4.500000) ">
<ellipse id="circle2" cx="26" cy="-32.5" rx="92" ry="92" fill="#00FF00" fill-opacity="0.8" stroke="#33FF33" stroke-opacity="1" transform="translate(-49.500000,32.500000) "/>
<ellipse id="circle4" cx="-17" cy="-77.5" rx="50" ry="50" fill="#FFFF00" fill-opacity="0.8" fill-rule="evenodd" stroke="#FFFF00" stroke-opacity="1" transform="translate(82.500000,119.500000) "/>
<text id="text1" x="-4.08887" y="19" font-family="Arial" font-size="28" text-anchor="start" transform="translate(40.088867,33.500000) ">
T2(E)</text>
<text id="text8" x="-0.088867" y="19" font-family="Arial" font-size="28" text-anchor="start" transform="translate(-65.911133,-20.500000) ">
T1(E)</text>
</g>
<g id="element1" transform="translate(587.746015,104.286728) ">
<ellipse id="circle1" cx="-1" cy="150.5" rx="150" ry="150" fill="#33CCCC" stroke="#33CCCC" transform="translate(1.253985,-150.515653) "/>
<path id="line1" d="M-149.000000,-34.423775 A150.253993,150.253993,0,1,0,151.500000,-32.923775 " fill="#3399CC" stroke="#3399CC" transform="translate(-1.246015,32.637047) "/>
<text id="text2" x="-56.1445" y="40" font-family="Arial" font-size="28" text-anchor="start" transform="translate(67.842852,43.484347) ">
T3(S)</text>
<text id="text3" x="-56.1445" y="40" font-family="Arial" font-size="28" text-anchor="start" transform="translate(67.898516,-79.015653) ">
T3(E)</text>
</g>
<g id="element3" transform="translate(473.000000,-5.500000) ">
<ellipse id="circle2" cx="26" cy="-32.5" rx="92" ry="92" fill="#00FF00" fill-opacity="0.8" stroke="#33FF33" stroke-opacity="1" transform="translate(-49.500000,32.500000) "/>
<ellipse id="circle4" cx="-17" cy="-77.5" rx="50" ry="50" fill="#FFFF00" fill-opacity="0.8" fill-rule="evenodd" stroke="#FFFF00" stroke-opacity="1" transform="translate(82.500000,119.500000) "/>
<text id="text1" x="-4.08887" y="19" font-family="Arial" font-size="28" text-anchor="start" transform="translate(40.088867,33.500000) ">
T2(E)</text>
<text id="text8" x="-0.088867" y="19" font-family="Arial" font-size="28" text-anchor="start" transform="translate(-65.911133,-20.500000) ">
T1(E)</text>
</g>
<g id="element4" transform="translate(473.168278,-6.173885) ">
<path id="line4-1" d="M94.507082,-8.136685 A92.645904,92.645903,0,1,0,56.007082,75.634390 " fill="none" stroke="#FF0000" stroke-width="5" stroke-dasharray="18,6" transform="translate(-26.675360,-0.189430) ">
<animate xlink:href="#line4-1" attributeName="stroke" attributeType="XML" from="#FFFFFF" to="#FF0000" begin="0"
								 dur="2s" fill="freeze" repeatCount="indefinite"></animate>
								<animate xlink:href="#line4-1" attributeName="stroke-opacity" attributeType="XML" from="0" to="1" begin="0"
								 dur="2s" fill="freeze" repeatCount="indefinite"></animate>
							</path>
<path id="line2-1" d="M-32.609089,-44.638541 A49.675894,49.675894,0,1,1,-71.609089,38.590384 " fill="none" stroke="#FF0000" stroke-width="5" stroke-dasharray="18,6" transform="translate(102.440811,36.083501) ">
<animate xlink:href="#line2-1" attributeName="stroke" attributeType="XML" from="#FFFFFF" to="#FF0000" begin="0"
								 dur="2s" fill="freeze" repeatCount="indefinite"></animate>
								<animate xlink:href="#line2-1" attributeName="stroke-opacity" attributeType="XML" from="0" to="1" begin="0"
								 dur="2s" fill="freeze" repeatCount="indefinite"></animate>
							</path>
</g>
</svg>
