<?xml version="1.0" encoding="utf-8"?>
<!-- Create with Visual Graph (http://www.visual-graph.com/) -->
<svg xmlns="http://www.w3.org/2000/svg" version="1.1" xmlns:xlink="http://www.w3.org/1999/xlink" style="background-color:#FFFFFF" id="main" viewBox="0.000000 0.000000 1000.000000 800.000000" width="600.000000" height="600.000000">
<script type="text/javascript" xlink:href="vg.js"/>
<defs/>
<line id="line3" x1="-97.2179" y1="13.8019" x2="-32.9179" y2="-13.8981" fill="#9900CC" stroke="#000000" transform="translate(31.917897,-94.701870) "/>
<line id="line4" x1="-77.0417" y1="66.5" x2="-78.0417" y2="-62.5" fill="none" stroke="#FF0000" stroke-width="5" stroke-dasharray="18,6" transform="translate(499.541704,445.000000) "/>
<g id="element1" transform="translate(160.543190,84.250000) ">
<ellipse id="circle4" cx="9.53846" cy="-67.1167" rx="92" ry="92" fill="#FFFF00" fill-opacity="0.8" fill-rule="nonzero" stroke="#FFFF33" stroke-opacity="1" transform="translate(-66.464140,66.866749) "/>
<path id="line2" d="M-110.769231,-52.031700 A92.053728,92.053728,0,1,0,73.153846,-50.889915 " fill="#00FF00" fill-opacity="0.8" stroke="#33FF0A" transform="translate(-38.156448,47.139915) "/>
<text id="text6" x="-0.088867" y="19" font-family="Arial" font-size="28" text-anchor="start" transform="translate(-99.913735,-48.250000) ">
T1(E)</text>
<text id="text1" x="-0.088867" y="19" font-family="Arial" font-size="28" text-anchor="start" transform="translate(-101.913735,27.750000) ">
T1(S)</text>
<ellipse id="circle1" cx="36.6814" cy="-42.0213" rx="92" ry="92" fill="#FF6699" fill-opacity="0.8" fill-rule="nonzero" stroke="#FF6699" stroke-opacity="0.8" transform="translate(20.361838,42.271270) "/>
<text id="text2" x="-0.088867" y="19" font-family="Arial" font-size="28" text-anchor="start" transform="translate(60.086265,-10.250000) ">
T2(E)</text>
</g>
<g id="element2" transform="translate(602.149901,79.500000) ">
<ellipse id="circle5" cx="16.5" cy="-10.1233" rx="135" ry="135" fill="#3399FF" fill-opacity="0.8" stroke="#3399FF" stroke-opacity="0.8" transform="translate(33.850099,10.123348) "/>
<text id="text5" x="-0.313046" y="18.6916" font-family="Arial" font-size="28" text-anchor="start" fill="#000000" transform="translate(112.546931,-8.852423) ">
T3(E)</text>
<g id="element2" transform="translate(-39.606711,3.250000) ">
<ellipse id="circle4" cx="9.53846" cy="-67.1167" rx="92" ry="92" fill="#FFFF00" fill-opacity="0.8" fill-rule="nonzero" stroke="#FFFF33" stroke-opacity="1" transform="translate(-66.464140,66.866749) "/>
<path id="line2" d="M-110.769231,-52.031700 A92.053728,92.053728,0,1,0,73.153846,-50.889915 " fill="#00FF00" fill-opacity="0.8" stroke="#33FF0A" transform="translate(-38.156448,47.139915) "/>
<text id="text6" x="-0.088867" y="19" font-family="Arial" font-size="28" text-anchor="start" transform="translate(-99.913735,-48.250000) ">
T1(E)</text>
<text id="text1" x="-0.088867" y="19" font-family="Arial" font-size="28" text-anchor="start" transform="translate(-101.913735,27.750000) ">
T1(S)</text>
<ellipse id="circle1" cx="36.6814" cy="-42.0213" rx="92" ry="92" fill="#FF6699" fill-opacity="0.8" fill-rule="nonzero" stroke="#FF6699" stroke-opacity="0.8" transform="translate(20.361838,42.271270) "/>
<text id="text2" x="-0.088867" y="19" font-family="Arial" font-size="28" text-anchor="start" transform="translate(60.086265,-10.250000) ">
T2(E)</text>
</g>
<path id="line6-1" d="M-73.019917,-72.118386 A91.205810,91.205810,0,1,1,-72.019917,72.881614 M-74.019917,-71.118386 A100.535790,100.535791,0,0,1,-70.019917,74.881614 " fill="none" stroke="#FF0000" stroke-width="5" stroke-dasharray="18,6" transform="translate(35.370016,1.118386) ">
<animate xlink:href="#line6-1" attributeName="stroke" attributeType="XML" from="#FFFFFF" to="#FF0000" begin="0"
								 dur="2s" fill="freeze" repeatCount="indefinite"></animate>
								<animate xlink:href="#line6-1" attributeName="stroke-opacity" attributeType="XML" from="0" to="1" begin="0"
								 dur="2s" fill="freeze" repeatCount="indefinite"></animate>
							</path>
</g>
</svg>
