<?xml version="1.0" encoding="utf-8"?>
<!-- Create with Visual Graph (http://www.visual-graph.com/) -->
<svg xmlns="http://www.w3.org/2000/svg" version="1.1" xmlns:xlink="http://www.w3.org/1999/xlink" style="background-color:##2c2c2f" id="main" viewBox="-100.000000 0.000000 950.000000 1100.000000" width="280.000000" height="340.000000">
<script type="text/javascript" xlink:href="vg.js"/>
<defs/>
<line id="line3" x1="-97.2179" y1="13.8019" x2="-32.9179" y2="-13.8981" fill="#9900CC" stroke="#000000" transform="translate(31.917897,-94.701870) "/>
<g id="element1" transform="translate(197.446283,105.519026) ">
<ellipse id="circle4" cx="9.53846" cy="-67.1167" rx="92" ry="92" fill="#00FF00" fill-opacity="0.8" fill-rule="nonzero" stroke="#00ff00" stroke-opacity="1" transform="translate(-47.407821,67.097723) "/>
<path id="line4" d="M-91.134503,-36.175830 A91.961380,91.961381,0,1,0,92.761962,-33.375830 " fill="#FF9933" fill-opacity="0.8" stroke="#ff9933" transform="translate(-38.811780,34.156804) "/>
<ellipse id="circle1" cx="-5.31865" cy="-84.0213" rx="50" ry="50" fill="#FFFF00" fill-opacity="0.8" fill-rule="nonzero" stroke="#ffff00" stroke-opacity="1" transform="translate(81.418157,85.002244) "/>
<text id="text4" x="-0.088867" y="19" font-family="Arial" font-size="28" text-anchor="start" transform="translate(-63.357416,-33.019026) ">
T1(S)</text>
<text id="text6" x="-0.088867" y="19" font-family="Arial" font-size="28" text-anchor="start" transform="translate(-57.857416,29.480974) ">
T1(E)</text>
<text id="text2" x="-0.088867" y="16.5" font-family="Arial" font-size="28" text-anchor="start" transform="translate(53.642584,-3.019026) ">
T2(S)</text>
</g>
<g id="element2" transform="translate(588.558756,167.670505) ">
<g id="element4" transform="translate(39.374661,10.500000) ">
<ellipse id="circle2" cx="51.0462" cy="-40.9401" rx="150" ry="150" fill="#6666FF" fill-opacity="0.6" fill-rule="nonzero" stroke="#6666ff" stroke-opacity="1" transform="translate(-50.362059,40.269594) "/>
<path id="line6" d="M-123.576498,-164.990290 A150.096913,150.096912,0,1,0,130.423502,-4.990290 " fill="#CC00FF" stroke="#cc00ff" transform="translate(-3.856919,85.319785) "/>
<text id="text1" x="-0.088867" y="16.5" font-family="Arial" font-size="28" text-anchor="start" transform="translate(-10.344550,75.829495) ">
T3(E)</text>
<text id="text3" x="-0.088867" y="16.5" font-family="Arial" font-size="28" text-anchor="start" transform="translate(35.655450,-26.170505) ">
T3(S)</text>
</g>
<g id="element2" transform="translate(-60.089023,-69.151479) ">
<ellipse id="circle4" cx="9.53846" cy="-67.1167" rx="92" ry="92" fill="#00FF00" fill-opacity="0.8" fill-rule="nonzero" stroke="#00ff00" stroke-opacity="1" transform="translate(-47.407821,67.097723) "/>
<path id="line4" d="M-91.134503,-36.175830 A91.961380,91.961381,0,1,0,92.761962,-33.375830 " fill="#FF9933" fill-opacity="0.8" stroke="#ff9933" transform="translate(-38.811780,34.156804) "/>
<ellipse id="circle1" cx="-5.31865" cy="-84.0213" rx="50" ry="50" fill="#FFFF00" fill-opacity="0.8" fill-rule="nonzero" stroke="#ffff00" stroke-opacity="1" transform="translate(81.418157,85.002244) "/>
<text id="text4" x="-0.088867" y="19" font-family="Arial" font-size="28" text-anchor="start" transform="translate(-63.357416,-33.019026) ">
T1(S)</text>
<text id="text6" x="-0.088867" y="19" font-family="Arial" font-size="28" text-anchor="start" transform="translate(-57.857416,29.480974) ">
T1(E)</text>
<text id="text2" x="-0.088867" y="16.5" font-family="Arial" font-size="28" text-anchor="start" transform="translate(53.642584,-3.019026) ">
T2(S)</text>
</g>
<path id="line1-1" d="M-128.057925,13.999914 A92.510299,92.510299,0,0,1,47.942075,-18.000086 M55.942075,15.999914 A49.030003,49.030003,0,0,1,48.942075,58.999914 M50.942075,-21.000086 A50.090935,50.090936,0,1,1,48.942075,61.999914 M-124.057925,14.999914 L52.942075,17.999914 " fill="none" stroke="#FF0000" stroke-width="6" stroke-dasharray="18,6" transform="translate(-61.000831,-89.170419) ">
<animate xlink:href="#line1-1" attributeName="stroke" attributeType="XML" from="#FFFFFF" to="#FF0000" begin="0"
								 dur="2s" fill="freeze" repeatCount="indefinite"></animate>
								<animate xlink:href="#line1-1" attributeName="stroke-opacity" attributeType="XML" from="0" to="1" begin="0"
								 dur="2s" fill="freeze" repeatCount="indefinite"></animate>
							</path>
</g>
</svg>
