<?xml version="1.0" encoding="utf-8"?>
<!-- Create with Visual Graph (http://www.visual-graph.com/) -->
<svg xmlns="http://www.w3.org/2000/svg" version="1.1" xmlns:xlink="http://www.w3.org/1999/xlink" style="background-color:#333" id="main" viewBox="0.000000 0.000000 800.000000 700.000000" width="600.000000" height="700.000000">
<script type="text/javascript" xlink:href="vg.js"/>
<defs/>
<g id="element1" transform="translate(188.500000,54.500000) ">
<ellipse id="circle1" cx="26" cy="-32.5" rx="92" ry="92" fill="#00FF00" fill-opacity="0.6" stroke="#00FF00" stroke-opacity="0.6" transform="translate(-45.000000,41.500000) "/>
<ellipse id="circle5" cx="-12" cy="-82.5" rx="45" ry="45" fill="#FFFF33" fill-opacity="0.7" fill-rule="nonzero" stroke="#FFFF33" stroke-opacity="0.7" transform="translate(78.000000,26.500000) "/>
<text id="text1" x="-0.088867" y="19" font-family="Arial" font-size="28" text-anchor="start" transform="translate(-59.911133,0.500000) ">
T1(E)</text>
<text id="text3" x="-2.08887" y="19" font-family="Arial" font-size="28" text-anchor="start" transform="translate(35.088867,-65.500000) ">
T2(S)</text>
</g>
<g id="element2" transform="translate(550.250000,64.000000) ">
<ellipse id="circle2" cx="83" cy="-18.5" rx="150" ry="150" fill="#008080" fill-opacity="0.7" fill-rule="nonzero" stroke="#FFFFFF" stroke-opacity="1" transform="translate(-30.250000,18.500000) "/>
<path id="line4" d="M-53.042722,-10.138394 A149.758539,149.758538,0,0,0,246.457278,-7.638394 " fill="#9999CC" fill-opacity="0.7" stroke="#829DC0" transform="translate(-44.207278,9.638394) "/>
<text id="text2" x="-0.088867" y="19" font-family="Arial" font-size="28" text-anchor="start" transform="translate(36.338867,-62.500000) ">
T3(S)</text>
<text id="text4" x="-0.088867" y="19" font-family="Arial" font-size="28" text-anchor="start" transform="translate(38.338867,54.500000) ">
T3(E)</text>
<ellipse id="circle3" cx="26" cy="-32.5" rx="92" ry="92" fill="#00FF00" fill-opacity="0.6" stroke="#00FF00" stroke-opacity="0.6" transform="translate(-136.750000,38.000000) "/>
<ellipse id="circle4" cx="-12" cy="-82.5" rx="45" ry="45" fill="#FFFF33" fill-opacity="0.7" fill-rule="nonzero" stroke="#DBED4A" stroke-opacity="1" transform="translate(-19.750000,23.000000) "/>
<text id="text5" x="-0.088867" y="19" font-family="Arial" font-size="28" text-anchor="start" transform="translate(-147.661133,-7.000000) ">
T1(E)</text>
<text id="text6" x="-2.08887" y="21.5" font-family="Arial" font-size="28" text-anchor="start" transform="translate(-58.661133,-85.000000) ">
T2(S)</text>
</g>
<path id="line1" d="M4.777182,43.085893 A100.663991,100.663990,0,0,0,-43.222818,-19.914107 45.350243,45.350242,0,1,1,4.777182,45.085893 " fill="none" stroke="#FF0000" stroke-width="6" stroke-dasharray="18,6" stroke-linecap="rect2" stroke-linejoin="miter" transform="translate(517.722818,3.414107) ">
	<animate xlink:href="#line1" attributeName="stroke" attributeType="XML" from="#FFFFFF" to="#FF0000" begin="0"
								 dur="2s" fill="freeze" repeatCount="indefinite"></animate>
								<animate xlink:href="#line1" attributeName="stroke-opacity" attributeType="XML" from="0" to="1" begin="0"
								 dur="2s" fill="freeze" repeatCount="indefinite"></animate>
							</path>
</svg>
